<?xml version="1.0" standalone="no"?>
<!DOCTYPE svg PUBLIC "-//W3C//DTD SVG 20010904//EN"
 "http://www.w3.org/TR/2001/REC-SVG-20010904/DTD/svg10.dtd">
<svg version="1.0" xmlns="http://www.w3.org/2000/svg"
 width="577.000000pt" height="433.000000pt" viewBox="0 0 577.000000 300.000000"
 preserveAspectRatio="xMidYMid meet">

<g transform="translate(0.000000,433.000000) scale(0.100000,-0.100000)"
fill="#FCEAD0" stroke="none">
<path d="M3045 2975 c-149 -37 -223 -70 -341 -151 -110 -75 -178 -139 -307
-289 -146 -171 -252 -275 -299 -298 -20 -9 -55 -17 -77 -17 -35 0 -49 7 -86
41 -25 23 -45 47 -45 53 0 6 21 18 47 26 58 17 129 84 162 154 41 83 39 246
-2 254 -9 2 -29 -6 -45 -18 -21 -16 -52 -23 -121 -30 -72 -7 -101 -14 -130
-33 l-36 -24 -39 25 c-30 19 -59 26 -128 32 -67 5 -96 12 -118 29 -39 28 -58
27 -71 -6 -18 -45 -6 -181 20 -231 46 -90 122 -149 212 -166 36 -6 36 -7 42
-67 8 -70 39 -200 68 -279 127 -349 443 -642 803 -745 134 -38 205 -47 396
-47 96 0 308 -2 470 -4 162 -3 310 -2 327 1 54 10 63 41 63 210 l0 145 28 0
c15 0 46 12 68 26 84 54 119 146 109 285 -5 67 -3 94 9 124 31 72 68 234 61
265 -3 15 -17 40 -31 55 -23 25 -24 30 -13 62 16 51 6 168 -21 226 -67 147
-218 281 -399 352 -174 68 -403 84 -576 40z m393 -46 c145 -23 308 -106 417
-213 l70 -69 -69 -13 c-121 -23 -144 -43 -343 -303 -81 -105 -137 -136 -227
-127 -130 12 -121 13 -121 -14 0 -29 39 -51 138 -77 95 -26 331 -23 466 6 110
23 213 60 243 88 22 20 22 13 3 -72 -25 -107 -78 -235 -140 -340 l-30 -50 -5
54 c-7 65 -25 81 -95 81 l-51 0 4 40 c6 57 -17 80 -78 80 -57 0 -126 -23 -157
-52 -19 -18 -23 -19 -28 -5 -10 24 -98 57 -154 57 -69 0 -95 -25 -86 -80 l6
-38 -63 -4 c-35 -2 -66 1 -70 7 -4 5 -18 43 -30 82 -23 76 -41 94 -66 69 -13
-13 -12 -23 7 -81 12 -36 51 -129 87 -207 35 -78 62 -143 60 -145 -2 -3 -56
-7 -118 -10 -173 -9 -265 19 -363 109 -88 80 -135 195 -147 358 -2 28 -9 37
-31 44 -42 15 -51 -2 -55 -111 -5 -112 8 -183 50 -268 38 -76 47 -87 70 -79
13 4 33 -5 61 -29 113 -92 219 -127 383 -127 l114 0 0 -114 0 -114 -27 -6
c-78 -16 -214 -17 -324 -2 -336 47 -627 230 -814 511 -89 133 -142 271 -171
439 -38 231 -37 226 -91 226 -44 0 -101 24 -137 58 -35 33 -66 102 -66 147 l0
33 47 -14 c25 -8 67 -14 93 -14 59 0 107 -16 120 -41 6 -10 19 -23 30 -29 17
-9 25 -6 48 19 34 37 70 51 131 51 26 0 69 6 94 14 l47 14 0 -26 c0 -112 -100
-212 -212 -212 -32 0 -58 -32 -58 -70 0 -30 50 -105 95 -142 77 -64 138 -73
224 -33 63 29 154 119 333 325 64 74 127 145 141 156 271 235 523 313 845 263z
m297 -570 c75 -14 145 -49 180 -91 l28 -33 -41 -17 c-70 -31 -232 -60 -362
-65 l-125 -5 40 36 c22 19 43 35 46 36 4 0 33 34 64 75 64 83 65 84 170 64z
m-372 -441 c10 -5 17 -11 15 -12 -7 -7 -118 19 -118 27 0 10 77 -1 103 -15z
m277 12 c0 -5 -13 -10 -29 -10 -16 0 -48 -7 -71 -15 -37 -13 -41 -13 -30 0 19
23 130 44 130 25z m-300 -165 l0 -55 -95 0 -95 0 -20 40 c-35 69 -34 70 95 70
l115 0 0 -55z m150 5 l0 -50 -45 0 -45 0 0 50 0 50 45 0 45 0 0 -50z m290 -5
l0 -55 -110 0 -110 0 0 55 0 55 110 0 110 0 0 -55z m165 -55 c-16 -49 -56 -93
-96 -105 -35 -12 -33 2 13 62 25 32 55 78 69 102 23 42 24 43 27 17 2 -15 -4
-49 -13 -76z m-605 -270 l0 -200 -95 0 -95 0 0 140 c0 112 3 142 14 146 24 9
40 61 28 89 l-12 25 80 0 80 0 0 -200z m410 0 l0 -200 -95 0 -95 0 0 200 0
200 95 0 95 0 0 -200z m-260 -15 l0 -185 -45 0 -45 0 0 185 0 185 45 0 45 0 0
-185z"/>
<path d="M3044 2431 c-39 -24 -62 -55 -75 -104 -12 -46 5 -90 38 -95 26 -4 40
19 41 68 1 43 31 70 78 70 26 0 39 -7 60 -36 21 -27 33 -34 53 -32 44 5 40 49
-7 99 -36 39 -44 43 -98 46 -46 3 -66 0 -90 -16z"/>
</g>
</svg>
