<svg width="100%" height="100%" id="svg" viewBox="0 0 1440 600" xmlns="http://www.w3.org/2000/svg" class="transition duration-300 ease-in-out delay-150">
<path d="M 0,600 C 0,600 0,200 0,200 C 105.46411483253587,196 210.92822966507174,192 309,198 C 407.07177033492826,204 497.7511961722488,219.99999999999997 586,228 C 674.2488038277512,236.00000000000003 760.066985645933,236 847,223 C 933.933014354067,210 1021.980861244019,184.00000000000003 1121,178 C 1220.019138755981,171.99999999999997 1330.0095693779904,186 1440,200 C 1440,200 1440,600 1440,600 Z" stroke="none" stroke-width="0" fill="#406f72" fill-opacity="0.53" class="transition-all duration-300 ease-in-out delay-150 path-0"></path>
<path d="M 0,600 C 0,600 0,400 0,400 C 60.95693779904306,375.0622009569378 121.91387559808612,350.1244019138756 237,349 C 352.0861244019139,347.8755980861244 521.3014354066986,370.5645933014354 613,396 C 704.6985645933014,421.4354066985646 718.8803827751196,449.61722488038276 810,451 C 901.1196172248804,452.38277511961724 1069.1770334928228,426.96650717703346 1187,414 C 1304.8229665071772,401.03349282296654 1372.4114832535886,400.51674641148327 1440,400 C 1440,400 1440,600 1440,600 Z" stroke="none" stroke-width="0" fill="#114447" fill-opacity="1" class="transition-all duration-300 ease-in-out delay-150 path-1"></path>
</svg>